<svg viewBox="0 0 209 175" fill="none" xmlns="http://www.w3.org/2000/svg">
<path d="M173.301 111.93C176.008 115.86 177.365 120.326 177.365 125.383C177.365 128.587 176.823 131.523 175.737 134.276L168.605 162.897H183.322L183.321 11.8037H84.0961L27.1719 105.16H60.1701V142.178H99.7142V162.9H138.356L131.271 134.414C130.142 131.661 129.601 128.636 129.601 125.386C129.601 120.331 130.957 115.863 133.665 111.933H173.301L173.301 111.93ZM173.571 89.0426C172.939 89.9886 172.215 90.937 171.404 91.8853H136.509C135.742 91.2986 135.017 90.6208 134.341 89.9443C128.744 84.4827 125.718 77.8463 125.222 70.0366C124.725 62.227 126.938 55.5894 131.86 50.0824C136.78 44.6208 143.011 41.8666 150.459 41.8666C151.541 41.8666 152.626 41.9098 153.664 42.0474C150.097 46.4253 148.156 51.4822 147.886 57.2621C149.42 56.9915 150.999 56.8538 152.671 56.8538C159.35 56.8538 164.994 58.9781 169.644 63.174C174.292 67.4178 176.595 72.5189 176.551 78.524C176.504 82.4073 175.51 85.9266 173.57 89.0425L173.571 89.0426ZM173.028 96.4022V107.416H133.663V96.4022H173.028ZM80.8446 55.5471C82.9689 55.5471 84.7734 56.3135 86.2608 57.8043C87.7528 59.294 88.5203 61.1009 88.5203 63.2205C88.5203 65.3447 87.7528 67.1039 86.2608 68.5934C84.7712 70.083 82.9667 70.8506 80.8446 70.8506C78.7226 70.8506 76.9637 70.083 75.4717 68.5934C73.9821 67.1038 73.2145 65.3446 73.2145 63.2205C73.2145 61.0986 73.9821 59.2918 75.4717 57.8043C76.9637 56.3135 78.7241 55.5471 80.8446 55.5471Z" fill="url(#paint0_linear_151_350)"/>
<defs>
<linearGradient id="paint0_linear_151_350" x1="27.1719" y1="11.8037" x2="191.1" y2="20.7753" gradientUnits="userSpaceOnUse">
<stop stop-color="#9ABBEC"/>
<stop offset="1" stop-color="#6196E4"/>
</linearGradient>
</defs>
</svg>
