<svg viewBox="0 0 32 32" fill="none" xmlns="http://www.w3.org/2000/svg">
<path d="M25.5156 11.7642L13.9526 23.3272C13.6479 23.6298 13.2361 23.7994 12.8068 23.7994C12.3775 23.7994 11.9656 23.6298 11.6609 23.3272L6.47712 18.1186C6.17172 17.8143 6 17.401 6 16.97C6 16.5393 6.17172 16.126 6.47712 15.8217C6.78252 15.519 7.19508 15.3491 7.62546 15.3491C8.05547 15.3491 8.46837 15.519 8.77381 15.8217L11.6809 18.7287V18.7291C11.9842 19.0338 12.3967 19.2055 12.8267 19.2055C13.2567 19.2055 13.6693 19.0337 13.9725 18.7291L23.2392 9.47224C23.5439 9.16963 23.9557 9 24.385 9C24.8143 9 25.2262 9.16962 25.5309 9.47224C25.8338 9.77764 26.0028 10.1912 26 10.6212C25.9968 11.0512 25.823 11.4627 25.5159 11.7639L25.5156 11.7642Z" fill="#B6E492"/>
</svg>
