<svg viewBox="0 0 49 48" fill="currentcolor" xmlns="http://www.w3.org/2000/svg">
<path d="M45.0651 35.4037V13.5734V13.1079C45.0602 12.4513 44.776 11.8583 44.237 11.481C43.7371 11.1282 43.1883 11.1429 42.6199 11.1429H16.8989H15.7669C15.1446 11.1478 14.5566 11.3536 14.0911 11.775C13.9539 11.8975 13.8411 12.0397 13.7235 12.1769C12.3857 13.7302 11.048 15.2787 9.71518 16.8321C8.19118 18.6011 6.66719 20.37 5.14329 22.1391C4.69736 22.6585 4.12404 23.1975 3.98192 23.8884C3.81531 24.6627 4.04073 25.3732 4.55036 25.9662C4.68756 26.1279 4.82477 26.2847 4.96198 26.4464C6.43203 28.1517 7.90701 29.8619 9.37706 31.5671C10.7834 33.1989 12.1898 34.8307 13.5962 36.4625C13.704 36.5899 13.8118 36.7173 13.9245 36.8398C14.3851 37.3592 15.0418 37.6336 15.7327 37.6434C16.0512 37.6483 16.3698 37.6434 16.6883 37.6434H43.1252H43.1644H43.2085H43.2134C44.2473 37.5895 45.046 36.7761 45.0706 35.7324C45.0657 35.6197 45.0657 35.5119 45.0657 35.404L45.0651 35.4037ZM30.9282 25.1082C32.163 26.343 33.3979 27.5779 34.6279 28.8079C35.211 29.391 35.1669 30.3025 34.6279 30.8856C34.0889 31.4687 33.0941 31.4295 32.5501 30.8856L31.1976 29.5331C30.1735 28.5089 29.1542 27.4897 28.1301 26.4656C27.89 26.7008 27.6548 26.9409 27.4147 27.181C26.1799 28.4159 24.945 29.6507 23.7101 30.8807C23.127 31.4638 22.2204 31.4197 21.6323 30.8807C21.0492 30.3417 21.0884 29.347 21.6323 28.803L22.9848 27.4505C24.0041 26.4263 25.0283 25.4071 26.0523 24.383L21.6373 19.9679C21.0541 19.3848 21.0982 18.4733 21.6373 17.8901C22.1763 17.307 23.171 17.3462 23.715 17.8901L28.135 22.3101C28.3751 22.07 28.6103 21.8348 28.8505 21.5947C30.0853 20.3599 31.3201 19.125 32.5501 17.895C33.1333 17.3119 34.0447 17.356 34.6279 17.895C35.211 18.4341 35.1718 19.4288 34.6279 19.9728L33.2754 21.3253C32.2512 22.3445 31.232 23.3687 30.2079 24.3928L30.9282 25.1082Z" fill="currentcolor"/>
</svg>
