<svg viewBox="0 0 113 97" fill="none" xmlns="http://www.w3.org/2000/svg">
<path d="M62.692 65.5655H50.3071C48.6639 65.5655 47.0891 64.9721 45.928 63.9153C44.7668 62.8586 44.1137 61.4246 44.1137 59.93H0.765137V79.6558C0.765137 84.1392 2.7225 88.4397 6.207 91.6109C9.69043 94.782 14.416 96.5633 19.3435 96.5633H93.6568C98.5843 96.5633 103.31 94.782 106.793 91.6109C110.278 88.4397 112.235 84.1392 112.235 79.6558V59.93H68.8866C68.8866 61.4245 68.2334 62.8586 67.0723 63.9153C65.9111 64.9721 64.3362 65.5655 62.6931 65.5655H62.692Z" fill="url(#paint0_linear_136_51)"/>
<path d="M93.6577 18.9136H75.0792V12.6995C75.0792 9.40353 73.7739 6.24184 71.4516 3.91032C69.1283 1.57987 65.9786 0.27002 62.6932 0.27002H50.3082C47.0227 0.27002 43.8731 1.57987 41.5497 3.91032C39.2274 6.24181 37.9222 9.40353 37.9222 12.6995V18.9136H19.3436C14.4161 18.9136 9.69052 20.8779 6.20705 24.3746C2.72252 27.8714 0.765137 32.6135 0.765137 37.5573V49.9867H44.1141C44.1141 48.3387 44.7673 46.7573 45.9284 45.5921C47.0896 44.4269 48.6645 43.7725 50.3076 43.7725H62.6937H62.6926C64.3359 43.7725 65.9107 44.4269 67.0718 45.5921C68.233 46.7573 68.8861 48.3386 68.8861 49.9867H112.235V37.5573C112.235 32.6135 110.278 27.8714 106.793 24.3746C103.31 20.8779 98.5842 18.9136 93.6566 18.9136H93.6577ZM68.8867 18.9136H44.1146V12.6995C44.1167 11.0515 44.7699 9.47224 45.931 8.30702C47.0922 7.14179 48.6661 6.48636 50.3081 6.48532H62.6942H62.6931C64.3353 6.48636 65.9091 7.14179 67.0702 8.30702C68.2314 9.47224 68.8845 11.0516 68.8866 12.6995L68.8867 18.9136Z" fill="url(#paint1_linear_136_51)"/>
<defs>
<linearGradient id="paint0_linear_136_51" x1="0.765137" y1="59.93" x2="115.168" y2="78.3651" gradientUnits="userSpaceOnUse">
<stop stop-color="#9ABBEC"/>
<stop offset="1" stop-color="#6196E4"/>
</linearGradient>
<linearGradient id="paint1_linear_136_51" x1="0.765137" y1="0.27002" x2="116.507" y2="14.0128" gradientUnits="userSpaceOnUse">
<stop stop-color="#9ABBEC"/>
<stop offset="1" stop-color="#6196E4"/>
</linearGradient>
</defs>
</svg>
