<svg viewBox="0 0 32 32" fill="none" xmlns="http://www.w3.org/2000/svg">
<path d="M24.6317 7.36834C22.475 5.21169 19.5498 4 16.4999 4C13.45 4 10.5247 5.21169 8.36816 7.36834C6.21151 9.52499 5 12.4502 5 15.5001C5 18.5502 6.21151 21.4753 8.36816 23.6318C10.525 25.7885 13.4501 27.0002 16.4999 27.0002C19.55 27.0002 22.4751 25.7885 24.6317 23.6318C26.7885 21.4752 28 18.5499 28 15.5001C28 12.4502 26.7885 9.52486 24.6317 7.36834ZM6.54487 15.5001C6.5428 13.0886 7.41984 10.7594 9.01172 8.94799L22.8843 23.1327C21.0964 24.635 18.8355 25.4578 16.5004 25.4557C11.0111 25.4557 6.54536 20.9899 6.54536 15.5007L6.54487 15.5001ZM23.9886 22.0522L10.116 7.86752C11.9039 6.36515 14.1648 5.5424 16.4999 5.54448C21.9892 5.54448 26.4549 10.0102 26.4549 15.4995C26.457 17.911 25.58 20.2402 23.9881 22.0516L23.9886 22.0522Z" fill="#FF9191"/>
</svg>
