<svg viewBox="0 0 138 106" fill="none" xmlns="http://www.w3.org/2000/svg">
<path d="M65.8269 99.6154C65.8269 101.027 64.7284 102.203 63.3958 102.282L19.2427 93.8124H18.9287C17.4385 93.8124 16.1836 92.5574 16.1836 91.0673V3.54533C16.1836 2.13393 17.2821 0.957789 18.6147 0.879028L62.7678 9.34833H63.0818C64.5719 9.34833 65.8269 10.6033 65.8269 12.0934V99.6154Z" fill="url(#paint0_linear_151_246)"/>
<path d="M122.216 91.1455C122.216 92.6356 121.039 93.8905 119.47 93.8905H119.156L75.0033 102.36C73.592 102.203 72.5723 101.105 72.5723 99.6936L72.5734 15.4654V12.0147C72.5734 10.5246 73.7495 9.26965 75.3184 9.26965H75.6324L94.8471 5.58369V15.4655V34.4448C94.8471 35.307 96.0232 35.8562 96.6512 35.2293C99.1611 32.563 101.671 29.8967 104.18 27.2303C106.69 29.8966 109.121 32.4853 111.552 35.0727C111.552 35.1515 111.63 35.1515 111.63 35.2292C111.944 35.5432 112.415 35.5432 112.729 35.3856C113.121 35.2292 113.435 34.9152 113.435 34.4447V15.4654V1.97632L119.708 0.800171C121.119 0.956625 122.139 2.13387 122.139 3.46647V15.3867L122.138 91.145L122.216 91.1455Z" fill="url(#paint1_linear_151_246)"/>
<path d="M137.899 21.5828V99.4585C137.899 102.83 135.154 105.576 131.782 105.576H94.2949L119.862 100.714C124.959 100.557 129.038 96.3218 129.038 91.2244V15.4662H131.783C135.155 15.4662 137.899 18.2113 137.899 21.5833L137.899 21.5828Z" fill="url(#paint2_linear_151_246)"/>
<path d="M44.0257 105.576H6.61713C3.24515 105.576 0.5 102.83 0.5 99.4584V21.5827C0.5 18.2107 3.24509 15.4656 6.61713 15.4656H9.36221V91.1454C9.36221 96.2427 13.44 100.478 18.4595 100.635L44.0257 105.576Z" fill="url(#paint3_linear_151_246)"/>
<defs>
<linearGradient id="paint0_linear_151_246" x1="16.1836" y1="0.879028" x2="68.4208" y2="2.23335" gradientUnits="userSpaceOnUse">
<stop stop-color="#9ABBEC"/>
<stop offset="1" stop-color="#6196E4"/>
</linearGradient>
<linearGradient id="paint1_linear_151_246" x1="72.5723" y1="0.800171" x2="124.81" y2="2.1524" gradientUnits="userSpaceOnUse">
<stop stop-color="#9ABBEC"/>
<stop offset="1" stop-color="#6196E4"/>
</linearGradient>
<linearGradient id="paint2_linear_151_246" x1="94.2949" y1="15.4662" x2="140.178" y2="16.642" gradientUnits="userSpaceOnUse">
<stop stop-color="#9ABBEC"/>
<stop offset="1" stop-color="#6196E4"/>
</linearGradient>
<linearGradient id="paint3_linear_151_246" x1="0.5" y1="15.4656" x2="46.3008" y2="16.6372" gradientUnits="userSpaceOnUse">
<stop stop-color="#9ABBEC"/>
<stop offset="1" stop-color="#6196E4"/>
</linearGradient>
</defs>
</svg>
