<svg viewBox="0 0 124 120" fill="none" xmlns="http://www.w3.org/2000/svg">
<path d="M112.518 12.4341H102.479V17.0675C102.479 25.3047 95.7858 31.9977 87.5486 31.9977C79.3114 31.9977 72.7478 25.3047 72.7478 17.0675V12.4341H51.3824V17.0675C51.3824 25.3047 44.6894 31.9977 36.5816 31.9977C28.3444 31.9977 21.6514 25.3047 21.6514 17.0675V12.4341H11.6123C5.69136 12.4341 0.929688 17.196 0.929688 23.1167V43.0664H123.201V23.1167C123.201 17.3252 118.439 12.4341 112.518 12.4341Z" fill="url(#paint0_linear_151_311)"/>
<path d="M36.5814 24.4039C40.7004 24.4039 43.9181 21.0578 43.9181 17.0672L43.9172 7.80035C43.9172 3.68128 40.5711 0.463623 36.5805 0.463623C32.4614 0.463623 29.2438 3.80976 29.2438 7.80035V17.0672C29.1163 21.1863 32.4623 24.4039 36.5814 24.4039Z" fill="url(#paint1_linear_151_311)"/>
<path d="M87.5477 24.4039C91.6667 24.4039 94.8844 21.0578 94.8844 17.0672V7.80035C94.8844 3.68128 91.5382 0.463623 87.5477 0.463623C83.4286 0.463623 80.2109 3.80976 80.2109 7.80035V17.0672C80.2118 21.1863 83.4295 24.4039 87.5477 24.4039Z" fill="url(#paint2_linear_151_311)"/>
<path d="M0.929487 108.707C0.929487 114.628 5.69139 119.389 11.6121 119.389H112.389C118.31 119.389 123.072 114.627 123.072 108.707V50.5314H0.800781V108.707H0.929487ZM47.1351 79.2329L55.1146 78.0747C55.7584 77.9464 56.1444 77.6887 56.4021 77.045L59.8774 69.9659C60.7788 68.2924 63.2235 68.2924 64.1247 69.9659L67.7285 77.3026C67.9861 77.8171 68.5006 78.204 69.0159 78.3324L76.867 79.4905C78.7972 79.7482 79.5703 82.0644 78.1544 83.4802L72.3629 89.1435C71.9768 89.5296 71.7191 90.1733 71.8484 90.6877L73.1359 98.5388C73.5219 100.469 71.4624 101.885 69.7897 100.984L62.5824 97.2524C62.068 96.9948 61.4242 96.9948 60.9089 97.2524L53.9593 100.984C52.2858 101.886 50.2272 100.47 50.6131 98.5388L52.0289 90.5592C52.1573 90.0448 51.9005 89.4011 51.5145 89.015L45.8512 83.4811C44.4327 81.936 45.2049 79.6188 47.1351 79.2329Z" fill="url(#paint3_linear_151_311)"/>
<defs>
<linearGradient id="paint0_linear_151_311" x1="0.929688" y1="12.4341" x2="124.169" y2="38.485" gradientUnits="userSpaceOnUse">
<stop stop-color="#9ABBEC"/>
<stop offset="1" stop-color="#6196E4"/>
</linearGradient>
<linearGradient id="paint1_linear_151_311" x1="29.2402" y1="0.463623" x2="44.6791" y2="0.964902" gradientUnits="userSpaceOnUse">
<stop stop-color="#9ABBEC"/>
<stop offset="1" stop-color="#6196E4"/>
</linearGradient>
<linearGradient id="paint2_linear_151_311" x1="80.2109" y1="0.463623" x2="95.6452" y2="0.9646" gradientUnits="userSpaceOnUse">
<stop stop-color="#9ABBEC"/>
<stop offset="1" stop-color="#6196E4"/>
</linearGradient>
<linearGradient id="paint3_linear_151_311" x1="0.800781" y1="50.5314" x2="128.419" y2="62.5322" gradientUnits="userSpaceOnUse">
<stop stop-color="#9ABBEC"/>
<stop offset="1" stop-color="#6196E4"/>
</linearGradient>
</defs>
</svg>
