<svg viewBox="0 0 24 25" fill="none" xmlns="http://www.w3.org/2000/svg">
<path d="M18.364 6.536C16.6761 4.84825 14.3871 3.90002 12.0001 3.90002C9.61317 3.90002 7.32379 4.84825 5.63611 6.536C3.94822 8.22388 3 10.5129 3 12.9C3 15.2869 3.94822 17.5762 5.63611 19.2639C7.32386 20.9518 9.61301 21.9 12.0001 21.9C14.3871 21.9 16.6763 20.9518 18.364 19.2639C20.0518 17.5762 21 15.287 21 12.9C21 10.5129 20.0518 8.22369 18.364 6.536ZM16.9762 13.3452H13.3743C13.2244 13.8078 12.8515 14.1639 12.3824 14.2924C11.9133 14.4209 11.411 14.3047 11.0462 13.983C10.6813 13.6615 10.5029 13.1777 10.5713 12.6962C10.64 12.2147 10.9464 11.8001 11.3866 11.5932V6.34593C11.3866 6.10005 11.5859 5.90072 11.8318 5.90072C12.0776 5.90072 12.277 6.10004 12.277 6.34593V11.4832C12.5298 11.533 12.7647 11.6493 12.9576 11.8201C13.1505 11.991 13.2944 12.2102 13.3743 12.455H16.9762C17.2221 12.455 17.4214 12.6543 17.4214 12.9002C17.4214 13.1461 17.2221 13.3454 16.9762 13.3454V13.3452ZM12.5531 12.9C12.5531 13.0466 12.4949 13.1873 12.3913 13.291C12.2875 13.3947 12.1468 13.4529 12.0002 13.4529C11.8536 13.4529 11.7129 13.3947 11.6091 13.291C11.5055 13.1873 11.4473 13.0466 11.4473 12.9C11.4473 12.7534 11.5055 12.6127 11.6091 12.5089C11.7129 12.4053 11.8536 12.3471 12.0002 12.3471C12.1468 12.3472 12.2874 12.4056 12.391 12.5092C12.4946 12.6128 12.553 12.7534 12.5531 12.9Z" fill="url(#paint0_linear_171_3012)"/>
<defs>
<linearGradient id="paint0_linear_171_3012" x1="3" y1="3.90002" x2="21.9002" y2="4.90094" gradientUnits="userSpaceOnUse">
<stop stop-color="#9ABBEC"/>
<stop offset="1" stop-color="#6196E4"/>
</linearGradient>
</defs>
</svg>
