<svg viewBox="0 0 33 34" fill="none" xmlns="http://www.w3.org/2000/svg">
<path d="M16.7852 14.3618V19.8944H24.4735C24.1359 21.6736 23.1228 23.1802 21.6033 24.1931L26.2397 27.7906C28.941 25.2972 30.4995 21.6347 30.4995 17.2841C30.4995 16.2711 30.4086 15.297 30.2397 14.362L16.7852 14.3618Z" fill="#4285F4"/>
<path d="M8.78029 19.6785L7.7346 20.4789L4.0332 23.362C6.38387 28.0244 11.2018 31.2452 16.7862 31.2452C20.6433 31.2452 23.877 29.9725 26.2408 27.7907L21.6044 24.1932C20.3316 25.0504 18.7082 25.5699 16.7862 25.5699C13.0719 25.5699 9.91609 23.0634 8.78613 19.6867L8.78029 19.6785Z" fill="#34A853"/>
<path d="M4.03237 10.5566C3.05839 12.4787 2.5 14.6475 2.5 16.9592C2.5 19.2709 3.05839 21.4398 4.03237 23.3618C4.03237 23.3747 8.78575 19.6735 8.78575 19.6735C8.50004 18.8163 8.33116 17.9073 8.33116 16.9591C8.33116 16.0109 8.50004 15.1018 8.78575 14.2447L4.03237 10.5566Z" fill="#FBBC05"/>
<path d="M16.7865 8.36183C18.8904 8.36183 20.7605 9.08909 22.2541 10.4917L26.345 6.40082C23.8644 4.08915 20.6437 2.67346 16.7865 2.67346C11.202 2.67346 6.38387 5.88128 4.0332 10.5567L8.78644 14.245C9.91625 10.8683 13.0722 8.36183 16.7865 8.36183Z" fill="#EA4335"/>
</svg>
