<svg viewBox="0 0 33 30" fill="none" xmlns="http://www.w3.org/2000/svg">
<path d="M12.7333 13.8682C13.9988 14.7886 15.4944 15.287 17.0286 15.287C18.5625 15.287 20.0581 14.7884 21.3237 13.8682C23.2029 12.5258 24.3149 10.3015 24.3149 8.00073C24.3149 3.97398 21.0551 0.714355 17.0286 0.714355C13.0018 0.714355 9.74219 3.97418 9.74219 8.00073C9.74192 10.3015 10.8542 12.5258 12.7332 13.8682H12.7333Z" fill="url(#paint0_linear_151_156)"/>
<path d="M32.5215 26.3318C32.4064 25.7182 32.2914 25.1045 32.0996 24.5294C30.7572 19.9657 27.4592 16.2843 23.1259 14.3668C22.8573 14.6354 22.5507 14.9037 22.2054 15.1337C20.6716 16.2457 18.9074 16.8212 17.0281 16.8212C15.1489 16.8212 13.3464 16.246 11.8508 15.1337C11.429 14.8269 11.0453 14.4818 10.7003 14.1367C4.90959 16.4378 0.882842 21.9983 0.576047 28.326C0.538062 28.7093 0.691342 29.0929 0.959917 29.3997C1.22849 29.7066 1.65007 29.8599 2.0337 29.8599H31.2175C31.6394 29.8599 32.023 29.7066 32.2913 29.3997C32.5599 29.0929 32.7132 28.7096 32.7132 28.2878C32.7132 28.096 32.7132 27.9042 32.6749 27.7509C32.6746 27.2905 32.5981 26.7919 32.5214 26.3317L32.5215 26.3318Z" fill="url(#paint1_linear_151_156)"/>
<defs>
<linearGradient id="paint0_linear_151_156" x1="9.74219" y1="0.714355" x2="25.0438" y2="1.5247" gradientUnits="userSpaceOnUse">
<stop stop-color="#9ABBEC"/>
<stop offset="1" stop-color="#6196E4"/>
</linearGradient>
<linearGradient id="paint1_linear_151_156" x1="0.570313" y1="14.1367" x2="34.0233" y2="17.7584" gradientUnits="userSpaceOnUse">
<stop stop-color="#9ABBEC"/>
<stop offset="1" stop-color="#6196E4"/>
</linearGradient>
</defs>
</svg>
