<svg viewBox="0 0 120 54" fill="currentcolor" xmlns="http://www.w3.org/2000/svg">
<path d="M41.4393 9.84561V43.3566H35.0949V15.214H24.6022V43.3566H18.2578L18.2578 9.84561H41.4393Z" fill="currentcolor"/>
<path d="M56.4247 9.52025C60.6272 9.52025 63.8536 10.2659 66.104 11.7571C68.3544 13.2212 69.4796 15.6342 69.4796 18.9962C69.4796 22.3853 68.3408 24.839 66.0633 26.3574C63.7859 27.8486 60.5323 28.5942 56.3027 28.5942H54.3099V43.3566H47.9655V9.52024C49.5109 9.41179 55.2589 9.52025 56.4247 9.52025ZM56.8314 14.9293C56.3705 14.9293 55.9096 14.9428 55.4486 14.9699C55.0148 14.9971 54.6353 15.0242 54.3099 15.0513V23.1852H56.3027C58.4988 23.1852 60.1527 22.8869 61.2644 22.2904C62.376 21.6939 62.9318 20.5823 62.9318 18.9555C62.9318 18.1693 62.7827 17.5186 62.4844 17.0034C62.2133 16.4883 61.8066 16.0816 61.2644 15.7833C60.7492 15.458 60.1121 15.2411 59.3529 15.1326C58.5937 14.9971 57.7532 14.9293 56.8314 14.9293Z" fill="currentcolor"/>
<path d="M96.8698 9.71167L101.736 16.0561H78.9208V24.0273H100.515L96.8698 30.3717H78.9208V38.3429H91.5427L88.3184 44.6873H78.9208L18.2249 44.6873V38.3429H73.5525V9.71167L96.8698 9.71167Z" fill="currentcolor"/>
</svg>
