<svg viewBox="0 0 126 145" fill="none" xmlns="http://www.w3.org/2000/svg">
<path d="M85.581 28.2904C81.3105 31.1377 84.8694 42.1693 91.6307 50.5312L119.743 84.8717C120.988 86.4735 123.123 86.8287 124.547 85.7608C125.97 84.8717 126.504 82.736 125.436 81.1341L104.086 42.5243C98.9261 33.0943 90.029 25.6219 85.581 28.2904Z" fill="url(#paint0_linear_151_96)"/>
<path d="M80.9541 28.1131C77.5741 28.647 73.6588 28.4694 70.9902 26.5113C68.3217 24.5543 67.2539 21.1731 67.2539 17.9706C67.2539 14.7682 68.3218 11.7434 69.3885 8.54065C70.2777 5.69339 71.3455 2.84727 72.2358 0C72.2358 2.49094 72.2358 5.15951 73.8376 7.11773C76.8624 11.0319 83.8014 9.60867 87.7165 12.9898C90.385 15.3032 90.9189 19.3947 89.1396 22.4198C87.7154 25.4435 84.3352 27.4016 80.9541 28.1131Z" fill="url(#paint1_linear_151_96)"/>
<path d="M114.408 85.7591H55.5127V29.7117C24.7323 30.6019 0 55.8678 0 87.0058C0 118.675 25.6222 144.3 57.2942 144.3C88.9638 144.3 114.408 118.501 114.408 87.0058V85.7604V85.7591ZM16.1908 98.215C9.78599 98.215 4.44776 92.8768 4.44776 86.2941C4.44776 79.7105 9.78599 74.3732 16.1908 74.3732C22.5957 74.3732 27.9339 79.7114 27.9339 86.2941C27.9339 92.8768 22.5968 98.215 16.1908 98.215ZM36.8312 124.37C30.4263 124.37 25.0881 119.032 25.0881 112.449C25.0881 105.866 30.4263 100.528 36.8312 100.528C43.236 100.528 48.5742 105.866 48.5742 112.449C48.5742 119.032 43.4147 124.37 36.8312 124.37ZM70.2823 127.395C63.8775 127.395 58.5392 122.057 58.5392 115.474C58.5392 108.89 63.8775 103.553 70.2823 103.553C76.6871 103.553 82.0254 108.891 82.0254 115.474C82.0254 122.057 76.6883 127.395 70.2823 127.395Z" fill="url(#paint2_linear_151_96)"/>
<defs>
<linearGradient id="paint0_linear_151_96" x1="83.7266" y1="27.7433" x2="128.174" y2="29.4405" gradientUnits="userSpaceOnUse">
<stop stop-color="#9ABBEC"/>
<stop offset="1" stop-color="#6196E4"/>
</linearGradient>
<linearGradient id="paint1_linear_151_96" x1="67.2539" y1="0" x2="91.3463" y2="1.03079" gradientUnits="userSpaceOnUse">
<stop stop-color="#9ABBEC"/>
<stop offset="1" stop-color="#6196E4"/>
</linearGradient>
<linearGradient id="paint2_linear_151_96" x1="0" y1="29.7117" x2="120.131" y2="36.0635" gradientUnits="userSpaceOnUse">
<stop stop-color="#9ABBEC"/>
<stop offset="1" stop-color="#6196E4"/>
</linearGradient>
</defs>
</svg>
