<svg viewBox="0 0 56 56" fill="none" xmlns="http://www.w3.org/2000/svg">
<path d="M10.4185 10.4178C3.19314 17.6431 3.19314 29.3618 10.4227 36.5921C16.7208 42.8902 26.4327 43.6994 33.6117 39.0161L46.5915 51.9959L52 46.5874L39.0167 33.6041C43.6959 26.4294 42.8908 16.7212 36.5926 10.423C29.3631 3.19309 17.6442 3.19309 10.4183 10.4185L10.4185 10.4178ZM32.149 32.1491C27.3769 36.9212 19.6374 36.9212 14.8659 32.1491C10.0897 27.373 10.0938 19.6376 14.8659 14.866C19.638 10.0939 27.373 10.0898 32.149 14.866C36.9211 19.6377 36.9211 27.3776 32.149 32.1491Z" fill="url(#paint0_linear_101_1197)"/>
<defs>
<linearGradient id="paint0_linear_101_1197" x1="5" y1="5" x2="54.3506" y2="7.61372" gradientUnits="userSpaceOnUse">
<stop stop-color="#9ABBEC"/>
<stop offset="1" stop-color="#6196E4"/>
</linearGradient>
</defs>
</svg>
