<svg viewBox="0 0 27 27" fill="none" xmlns="http://www.w3.org/2000/svg">
<rect width="27" height="27" rx="13.5" fill="#ECF0F1"/>
<path d="M6.82333 6.8222C4.15499 9.49054 4.15499 13.8183 6.82486 16.4884C9.15075 18.8143 12.7374 19.1131 15.3886 17.3836L20.1821 22.177L22.1794 20.1797L17.3847 15.3849C19.1127 12.7353 18.8154 9.15005 16.4895 6.82412C13.8196 4.15412 9.49177 4.15412 6.82326 6.82246L6.82333 6.8222ZM14.8484 14.8476C13.0861 16.61 10.2279 16.61 8.46574 14.8476C6.70189 13.0838 6.7034 10.2271 8.46574 8.46493C10.2281 6.70259 13.0846 6.70109 14.8484 8.46493C16.6108 10.2271 16.6108 13.0855 14.8484 14.8476Z" fill="url(#paint0_linear_115_2938)"/>
<defs>
<linearGradient id="paint0_linear_115_2938" x1="4.82227" y1="4.82141" x2="23.0475" y2="5.78666" gradientUnits="userSpaceOnUse">
<stop stop-color="#9ABBEC"/>
<stop offset="1" stop-color="#6196E4"/>
</linearGradient>
</defs>
</svg>
