<svg viewBox="0 0 209 175" fill="none" xmlns="http://www.w3.org/2000/svg">
<path d="M142.357 46.8428L52.7001 14.1204C50.6194 13.3644 48.35 14.4991 47.5928 16.5797L39.0814 40.0345C38.7027 40.9806 38.7027 42.1152 39.2701 43.0612C39.6488 44.0072 40.5948 44.7633 41.5395 45.1419C46.0794 46.844 49.6722 50.0595 51.7528 54.4106C53.8335 58.7607 54.0222 63.6792 52.3202 68.2181C50.6181 72.758 47.4026 76.3508 43.0515 78.4315C38.7015 80.5122 33.7829 80.7008 29.244 78.9988C28.298 78.6201 27.1633 78.6201 26.2173 79.1875C25.2713 79.5661 24.5153 80.5122 24.1366 81.4569L15.4378 104.533C15.0591 105.479 15.0591 106.614 15.6265 107.56C16.1938 108.506 16.9512 109.262 17.8959 109.64L107.552 142.174L142.357 46.8428Z" fill="url(#paint0_linear_151_353)"/>
<path d="M194.561 67.0819C194.183 66.1359 193.237 65.3799 192.292 65.0012L152.382 50.4377L117.578 145.958L157.489 160.523C157.867 160.711 158.435 160.711 158.813 160.711C160.515 160.711 162.029 159.765 162.596 158.063L171.107 134.609C171.486 133.663 171.486 132.528 170.919 131.582C170.54 130.636 169.594 129.88 168.649 129.501C164.109 127.799 160.516 124.584 158.436 120.233C156.355 115.882 156.166 110.964 157.868 106.425C159.57 101.885 162.786 98.2923 167.137 96.2117C171.487 94.131 176.406 93.9423 180.945 95.6443C183.025 96.4004 185.295 95.2657 186.052 93.185L194.563 69.7302C195.128 69.1628 194.939 68.0282 194.561 67.0822L194.561 67.0819Z" fill="url(#paint1_linear_151_353)"/>
<defs>
<linearGradient id="paint0_linear_151_353" x1="15.1738" y1="13.8855" x2="148.724" y2="20.8971" gradientUnits="userSpaceOnUse">
<stop stop-color="#9ABBEC"/>
<stop offset="1" stop-color="#6196E4"/>
</linearGradient>
<linearGradient id="paint1_linear_151_353" x1="117.578" y1="50.4377" x2="198.903" y2="53.4583" gradientUnits="userSpaceOnUse">
<stop stop-color="#9ABBEC"/>
<stop offset="1" stop-color="#6196E4"/>
</linearGradient>
</defs>
</svg>
