<svg viewBox="0 0 37 36" fill="none" xmlns="http://www.w3.org/2000/svg">
<path d="M3.56055 18C3.56055 9.7155 10.2745 3 18.5605 3C26.8435 3 33.5605 9.7155 33.5605 18C33.5605 26.2845 26.8435 33 18.5605 33C10.2745 33 3.56055 26.2845 3.56055 18Z" fill="#FC3F1D"/>
<path d="M20.4794 11.499H19.0934C16.5524 11.499 15.2159 12.786 15.2159 14.6835C15.2159 16.8285 16.1399 17.8335 18.0374 19.122L19.6049 20.178L15.1004 26.9085H11.7344L15.7769 20.8875C13.4519 19.221 12.1469 17.6025 12.1469 14.865C12.1469 11.433 14.5394 9.08997 19.0769 9.08997H23.5814V26.892H20.4794V11.499Z" fill="white"/>
</svg>
