<svg viewBox="0 0 180 150" fill="none" xmlns="http://www.w3.org/2000/svg">
<path d="M128.871 29.1517C119.837 16.2262 105.661 9 89.9568 9C74.1132 9 59.7983 16.5044 50.9037 29.5686C42.009 42.6329 40.202 58.8932 45.7617 73.208C46.4568 75.0151 47.4291 76.8212 48.541 78.6282L84.8145 137.555C85.9265 139.362 87.8721 140.474 89.9565 140.474C92.0409 140.474 93.9864 139.362 95.0985 137.555L131.511 78.2113C132.762 76.2656 133.595 74.3199 134.43 72.5129C139.85 58.1981 137.766 41.9375 128.871 29.1515L128.871 29.1517ZM89.9568 64.5913C83.286 64.5913 77.8658 59.1712 77.8658 52.5004C77.8658 45.8297 83.286 40.4095 89.9568 40.4095C96.6275 40.4095 102.048 45.8297 102.048 52.5004C102.048 59.1712 96.6275 64.5913 89.9568 64.5913Z" fill="url(#paint0_linear_151_318)"/>
<defs>
<linearGradient id="paint0_linear_151_318" x1="42.5996" y1="9" x2="142.275" y2="12.8061" gradientUnits="userSpaceOnUse">
<stop stop-color="#9ABBEC"/>
<stop offset="1" stop-color="#6196E4"/>
</linearGradient>
</defs>
</svg>
