<svg viewBox="0 0 33 32" fill="none" xmlns="http://www.w3.org/2000/svg">
<rect x="0.5" width="32" height="32" rx="16" fill="url(#paint0_linear_224_3234)"/>
<path d="M17.2852 21.5999C11.272 21.5999 7.84213 17.3957 7.69922 10.3999H10.7113C10.8103 15.5346 13.0309 17.7096 14.7898 18.1581V10.3999H17.626V14.8283C19.3629 14.6377 21.1878 12.6197 21.8034 10.3999H24.6396C24.4076 11.5512 23.9452 12.6412 23.2813 13.6019C22.6174 14.5626 21.7662 15.3732 20.781 15.9831C21.8807 16.5403 22.852 17.3291 23.6308 18.2973C24.4096 19.2655 24.9783 20.3911 25.2992 21.5999H22.1772C21.8891 20.55 21.3035 19.6101 20.4939 18.8982C19.6843 18.1862 18.6867 17.7337 17.626 17.5975V21.5999H17.2852Z" fill="white"/>
<defs>
<linearGradient id="paint0_linear_224_3234" x1="0.5" y1="0" x2="34.1004" y2="1.7794" gradientUnits="userSpaceOnUse">
<stop stop-color="#9ABBEC"/>
<stop offset="1" stop-color="#6196E4"/>
</linearGradient>
</defs>
</svg>
