<svg width="205" height="53" viewBox="0 0 205 53" fill="none" xmlns="http://www.w3.org/2000/svg">
<path d="M84.4393 9.34524V42.8562H78.0949V14.7136H67.6022V42.8562H61.2578L61.2578 9.34524H84.4393Z" fill="#323232"/>
<path d="M99.4247 9.01989C103.627 9.01989 106.854 9.76549 109.104 11.2567C111.354 12.7208 112.48 15.1338 112.48 18.4958C112.48 21.885 111.341 24.3387 109.063 25.857C106.786 27.3482 103.532 28.0938 99.3027 28.0938H97.3099V42.8562H90.9655V9.01988C92.5109 8.91143 98.2589 9.01989 99.4247 9.01989ZM99.8314 14.4289C99.3705 14.4289 98.9096 14.4425 98.4486 14.4696C98.0148 14.4967 97.6353 14.5238 97.3099 14.5509V22.6848H99.3027C101.499 22.6848 103.153 22.3865 104.264 21.7901C105.376 21.1936 105.932 20.0819 105.932 18.4552C105.932 17.6689 105.783 17.0182 105.484 16.503C105.213 15.9879 104.807 15.5812 104.264 15.283C103.749 14.9576 103.112 14.7407 102.353 14.6323C101.594 14.4967 100.753 14.4289 99.8314 14.4289Z" fill="#323232"/>
<path d="M139.87 9.21143L144.736 15.5558L121.921 15.5558V23.527H143.515L139.87 29.8714H121.921V37.8426H134.543L131.318 44.187H121.921L61.2249 44.187V37.8426H116.552V9.21143L139.87 9.21143Z" fill="#323232"/>
</svg>
