<svg width="84" height="37" viewBox="0 0 84 37" fill="none" xmlns="http://www.w3.org/2000/svg">
<path d="M23.4393 1.34524V34.8562H17.0949V6.71359H6.60223V34.8562H0.257812L0.257813 1.34524H23.4393Z" fill="#323232"/>
<path d="M38.4247 1.01989C42.6272 1.01989 45.8536 1.76549 48.104 3.2567C50.3544 4.7208 51.4796 7.13384 51.4796 10.4958C51.4796 13.885 50.3408 16.3387 48.0633 17.857C45.7859 19.3482 42.5323 20.0938 38.3027 20.0938H36.3099V34.8562H29.9655V1.01988C31.5109 0.911426 37.2589 1.01989 38.4247 1.01989ZM38.8314 6.42891C38.3705 6.42891 37.9096 6.44247 37.4486 6.46958C37.0148 6.49669 36.6353 6.5238 36.3099 6.55092V14.6848H38.3027C40.4988 14.6848 42.1527 14.3865 43.2644 13.7901C44.376 13.1936 44.9318 12.0819 44.9318 10.4552C44.9318 9.6689 44.7827 9.01819 44.4844 8.50305C44.2133 7.9879 43.8066 7.58121 43.2644 7.28296C42.7492 6.95761 42.1121 6.74071 41.3529 6.63226C40.5937 6.49669 39.7532 6.42891 38.8314 6.42891Z" fill="#323232"/>
<path d="M78.8698 1.21143L83.7363 7.55584L60.9208 7.55584V15.527L82.5147 15.527L78.8698 21.8714H60.9208V29.8426H73.5427L70.3184 36.187H60.9208L0.224933 36.187V29.8426L55.5525 29.8426V1.21143L78.8698 1.21143Z" fill="#323232"/>
</svg>
